<svg width="731" height="121" viewBox="0 0 731 121" fill="none" xmlns="http://www.w3.org/2000/svg">
<g>
<path d="M28.7109 47.1211L20.0195 72.3164H37.1094L28.7109 47.1211ZM25.0977 29.8848H43.3105L64.3066 90.3828H67.9199V98H37.207V90.3828H43.0176L40.0879 81.3008H16.8945L13.8184 90.3828H19.6777V98H-0.0976562V90.3828H4.29688L25.0977 29.8848ZM98.6328 29.0059V35.3047L94.9707 36.4766V91.7988H98.4375V98H73.6328V91.7988H77.1484V42.1895L73.6328 43.3125V37.0137L98.6328 29.0059ZM129.102 79.9824C129.102 83.2702 129.704 85.793 130.908 87.5508C132.113 89.3086 133.822 90.1875 136.035 90.1875C138.379 90.1875 140.234 89.1133 141.602 86.9648C143.001 84.8164 143.701 81.8542 143.701 78.0781C143.701 72.5117 142.725 67.9707 140.771 64.4551C138.851 60.9395 136.393 59.1816 133.398 59.1816C132.715 59.1816 132.048 59.2956 131.396 59.5234C130.745 59.7188 129.98 60.0768 129.102 60.5977V79.9824ZM132.812 29.0059V35.3047L129.102 36.4766V53.8105C132.194 51.597 134.912 50.002 137.256 49.0254C139.6 48.0163 141.813 47.5117 143.896 47.5117C148.551 47.5117 152.409 49.3346 155.469 52.9805C158.561 56.6263 160.107 61.1999 160.107 66.7012C160.107 71.2259 159.212 75.5065 157.422 79.543C155.664 83.5469 153.06 87.1602 149.609 90.3828C146.517 93.3451 143.197 95.5911 139.648 97.1211C136.1 98.651 132.422 99.416 128.613 99.416C125.716 99.416 122.689 98.9115 119.531 97.9023C116.374 96.8607 113.607 95.4935 111.23 93.8008V42.1895L107.812 43.3125V37.0137L132.812 29.0059ZM189.307 47.5117H189.99C189.827 49.6276 189.697 51.3691 189.6 52.7363C189.535 54.071 189.502 55.194 189.502 56.1055V91.7988H192.969V98H168.213V91.7988H171.68V58.3027L168.213 58.8887V53.3223L189.307 47.5117ZM182.373 31.9844C184.749 31.9844 186.654 32.5378 188.086 33.6445C189.551 34.7513 190.283 36.1673 190.283 37.8926C190.283 40.2363 189.079 42.2383 186.67 43.8984C184.294 45.5586 181.429 46.3887 178.076 46.3887C176.025 46.3887 174.382 45.8678 173.145 44.8262C171.908 43.7845 171.289 42.401 171.289 40.6758C171.289 38.4297 172.412 36.4277 174.658 34.6699C176.904 32.8796 179.476 31.9844 182.373 31.9844ZM238.135 79.6895C238.135 73.1139 236.8 67.3522 234.131 62.4043C231.494 57.4564 228.63 54.9824 225.537 54.9824C223.551 54.9824 222.005 55.9915 220.898 58.0098C219.792 60.028 219.238 62.8926 219.238 66.6035C219.238 73.472 220.524 79.4128 223.096 84.4258C225.667 89.4062 228.516 91.8965 231.641 91.8965C233.757 91.8965 235.368 90.8711 236.475 88.8203C237.581 86.737 238.135 83.6934 238.135 79.6895ZM228.76 47.5117C236.702 47.5117 243.294 49.9694 248.535 54.8848C253.809 59.8001 256.445 66.0013 256.445 73.4883C256.445 80.9753 253.825 87.1764 248.584 92.0918C243.376 96.9746 236.768 99.416 228.76 99.416C220.719 99.416 214.062 96.9746 208.789 92.0918C203.548 87.209 200.928 81.0078 200.928 73.4883C200.928 65.9688 203.548 59.7676 208.789 54.8848C214.062 49.9694 220.719 47.5117 228.76 47.5117ZM285.693 47.5117H286.377L285.889 56.1055C289.339 53.2083 292.546 51.0599 295.508 49.6602C298.47 48.2279 301.221 47.5117 303.76 47.5117C308.154 47.5117 311.605 48.8464 314.111 51.5156C316.618 54.1523 317.871 57.847 317.871 62.5996V91.7988H321.289V98H296.582V91.7988H300V65.6758C300 63.5599 299.544 61.9648 298.633 60.8906C297.721 59.8164 296.37 59.2793 294.58 59.2793C293.18 59.2793 291.715 59.6374 290.186 60.3535C288.688 61.0371 287.256 62.0137 285.889 63.2832V91.7988H289.355V98H264.6V91.7988H268.066V58.3027L264.6 58.8887V53.3223L285.693 47.5117ZM356.25 27.3945H363.135L363.525 29.8848H402.246L402.539 27.3945H409.424L410.84 48.1953H404.248C403.792 45.1029 402.751 42.8079 401.123 41.3105C399.528 39.7806 397.298 39.0156 394.434 39.0156H393.213V90.3828H399.121V98H366.553V90.3828H372.461V39.0156H371.24C368.408 39.0156 366.195 39.7643 364.6 41.2617C363.005 42.7591 361.979 45.0703 361.523 48.1953H354.834L356.25 27.3945ZM443.896 79.6895C443.896 73.1139 442.562 67.3522 439.893 62.4043C437.256 57.4564 434.391 54.9824 431.299 54.9824C429.313 54.9824 427.767 55.9915 426.66 58.0098C425.553 60.028 425 62.8926 425 66.6035C425 73.472 426.286 79.4128 428.857 84.4258C431.429 89.4062 434.277 91.8965 437.402 91.8965C439.518 91.8965 441.13 90.8711 442.236 88.8203C443.343 86.737 443.896 83.6934 443.896 79.6895ZM434.521 47.5117C442.464 47.5117 449.056 49.9694 454.297 54.8848C459.57 59.8001 462.207 66.0013 462.207 73.4883C462.207 80.9753 459.587 87.1764 454.346 92.0918C449.137 96.9746 442.529 99.416 434.521 99.416C426.481 99.416 419.824 96.9746 414.551 92.0918C409.31 87.209 406.689 81.0078 406.689 73.4883C406.689 65.9688 409.31 59.7676 414.551 54.8848C419.824 49.9694 426.481 47.5117 434.521 47.5117ZM490.527 47.5117H491.26V81.2031C491.26 83.319 491.667 84.9141 492.48 85.9883C493.327 87.0625 494.58 87.5996 496.24 87.5996C497.445 87.5996 498.682 87.3066 499.951 86.7207C501.221 86.1348 502.376 85.321 503.418 84.2793V58.3027L500.049 58.8887V53.3223L520.654 47.5117H521.24V91.7988H524.756V98H504.639L502.539 91.9941C499.935 94.403 497.331 96.2422 494.727 97.5117C492.155 98.7812 489.697 99.416 487.354 99.416C482.959 99.416 479.525 98.0977 477.051 95.4609C474.577 92.7917 473.34 89.0645 473.34 84.2793V58.3027L469.922 58.8887V53.3223L490.527 47.5117ZM571.68 47.0234L577.002 48.8789L571.094 65.5781C569.173 64.8294 567.546 64.276 566.211 63.918C564.909 63.5599 563.802 63.3809 562.891 63.3809C560.905 63.3809 559.342 64.0645 558.203 65.4316C557.064 66.7663 556.494 68.6217 556.494 70.998V91.7988H561.572V98H535.205V91.7988H538.672V66.7012C538.672 65.3991 538.558 64.5202 538.33 64.0645C538.102 63.6087 537.679 63.1855 537.061 62.7949L535.205 64.3086L531.592 60.3047L542.383 47.5117C545.41 48.9115 547.803 50.4251 549.561 52.0527C551.351 53.6803 552.62 55.5358 553.369 57.6191C556.201 53.2897 558.301 50.5228 559.668 49.3184C561.068 48.1139 562.533 47.5117 564.062 47.5117C564.909 47.5117 565.885 47.6745 566.992 48C568.132 48.293 569.336 48.7324 570.605 49.3184L571.68 47.0234ZM602.393 47.5117H603.076C602.913 49.6276 602.783 51.3691 602.686 52.7363C602.62 54.071 602.588 55.194 602.588 56.1055V91.7988H606.055V98H581.299V91.7988H584.766V58.3027L581.299 58.8887V53.3223L602.393 47.5117ZM595.459 31.9844C597.835 31.9844 599.74 32.5378 601.172 33.6445C602.637 34.7513 603.369 36.1673 603.369 37.8926C603.369 40.2363 602.165 42.2383 599.756 43.8984C597.38 45.5586 594.515 46.3887 591.162 46.3887C589.111 46.3887 587.467 45.8678 586.23 44.8262C584.993 43.7845 584.375 42.401 584.375 40.6758C584.375 38.4297 585.498 36.4277 587.744 34.6699C589.99 32.8796 592.562 31.9844 595.459 31.9844ZM637.646 47.5117H638.33L637.842 56.1055C641.292 53.2083 644.499 51.0599 647.461 49.6602C650.423 48.2279 653.174 47.5117 655.713 47.5117C660.107 47.5117 663.558 48.8464 666.064 51.5156C668.571 54.1523 669.824 57.847 669.824 62.5996V91.7988H673.242V98H648.535V91.7988H651.953V65.6758C651.953 63.5599 651.497 61.9648 650.586 60.8906C649.674 59.8164 648.324 59.2793 646.533 59.2793C645.133 59.2793 643.669 59.6374 642.139 60.3535C640.641 61.0371 639.209 62.0137 637.842 63.2832V91.7988H641.309V98H616.553V91.7988H620.02V58.3027L616.553 58.8887V53.3223L637.646 47.5117ZM697.217 59.9141C697.217 65.1875 698.242 69.9238 700.293 74.123C702.344 78.3223 704.59 80.4219 707.031 80.4219C708.626 80.4219 709.863 79.8197 710.742 78.6152C711.654 77.3783 712.109 75.6693 712.109 73.4883C712.109 68.1172 711.084 63.4297 709.033 59.4258C706.982 55.4219 704.606 53.4199 701.904 53.4199C700.439 53.4199 699.284 53.9896 698.438 55.1289C697.624 56.2682 697.217 57.8633 697.217 59.9141ZM705.225 99.416C704.443 100.49 703.857 101.564 703.467 102.639C703.109 103.713 702.93 104.803 702.93 105.91C702.93 107.603 703.304 108.921 704.053 109.865C704.801 110.809 705.827 111.281 707.129 111.281C708.236 111.281 709.115 110.923 709.766 110.207C710.417 109.523 710.742 108.596 710.742 107.424C710.742 105.666 710.254 104.071 709.277 102.639C708.301 101.239 706.95 100.165 705.225 99.416ZM679.736 91.4082C683.415 90.5944 686.8 89.6829 689.893 88.6738C692.985 87.6647 695.703 86.5742 698.047 85.4023C692.741 84.263 688.542 82.0332 685.449 78.7129C682.357 75.3926 680.811 71.4863 680.811 66.9941C680.811 61.4603 683.089 56.8379 687.646 53.127C692.204 49.3835 697.868 47.5117 704.639 47.5117C706.364 47.5117 708.008 47.6094 709.57 47.8047C711.133 48 712.614 48.293 714.014 48.6836C715.088 44.9727 716.26 42.515 717.529 41.3105C718.799 40.1061 720.768 39.5039 723.438 39.5039C723.958 39.5039 724.512 39.5365 725.098 39.6016C725.716 39.6667 726.318 39.7643 726.904 39.8945L724.902 49.3184C724.089 48.8626 723.421 48.5534 722.9 48.3906C722.38 48.1953 721.924 48.0977 721.533 48.0977C720.947 48.0977 720.475 48.2441 720.117 48.5371C719.792 48.8301 719.629 49.2207 719.629 49.709C719.629 49.709 721.11 51.4668 724.072 54.9824C727.035 58.4655 728.516 62.3717 728.516 66.7012C728.516 72.2025 726.4 76.776 722.168 80.4219C717.969 84.0352 711.426 86.9323 702.539 89.1133C711.003 90.1875 717.106 91.8151 720.85 93.9961C724.626 96.1771 726.514 99.1393 726.514 102.883C726.514 106.691 724.495 109.914 720.459 112.551C716.455 115.188 711.507 116.506 705.615 116.506C700.505 116.506 696.517 115.66 693.652 113.967C690.82 112.307 689.404 109.979 689.404 106.984C689.404 104.771 690.202 102.85 691.797 101.223C693.392 99.6276 695.736 98.3906 698.828 97.5117C697.07 97.2513 695.638 97.0723 694.531 96.9746C693.424 96.8444 692.415 96.7793 691.504 96.7793C690.658 96.7793 689.762 96.8444 688.818 96.9746C687.874 97.0723 686.816 97.2513 685.645 97.5117L679.736 91.4082Z" fill="currentColor"/>
</g>
</svg>
