<svg width="124" height="20" viewBox="0 0 124 20" fill="none" xmlns="http://www.w3.org/2000/svg">
<path d="M3.484 3.534C3.016 3.534 2.638 3.408 2.35 3.156C2.062 2.892 1.918 2.562 1.918 2.166C1.918 1.758 2.062 1.428 2.35 1.176C2.638 0.912 3.016 0.78 3.484 0.78C3.952 0.78 4.33 0.912 4.618 1.176C4.906 1.44 5.05 1.77 5.05 2.166C5.05 2.562 4.906 2.892 4.618 3.156C4.33 3.408 3.952 3.534 3.484 3.534ZM0.46 17.556H1.18C1.552 17.556 1.816 17.478 1.972 17.322C2.14 17.166 2.224 16.896 2.224 16.512V5.028H4.762V16.512C4.762 18.672 3.676 19.752 1.504 19.752H0.46V17.556ZM10.9623 4.902C11.8023 4.902 12.5223 5.1 13.1223 5.496C13.7223 5.892 14.1483 6.426 14.4003 7.098V5.028H16.9203V15H14.4003V12.912C14.1483 13.584 13.7223 14.124 13.1223 14.532C12.5223 14.928 11.8023 15.126 10.9623 15.126C10.1223 15.126 9.3663 14.922 8.6943 14.514C8.0223 14.106 7.4943 13.518 7.1103 12.75C6.7383 11.97 6.5523 11.058 6.5523 10.014C6.5523 8.97 6.7383 8.064 7.1103 7.296C7.4943 6.516 8.0223 5.922 8.6943 5.514C9.3663 5.106 10.1223 4.902 10.9623 4.902ZM11.7543 7.116C10.9623 7.116 10.3263 7.374 9.8463 7.89C9.3663 8.406 9.1263 9.114 9.1263 10.014C9.1263 10.914 9.3663 11.622 9.8463 12.138C10.3263 12.642 10.9623 12.894 11.7543 12.894C12.5223 12.894 13.1523 12.636 13.6443 12.12C14.1483 11.592 14.4003 10.89 14.4003 10.014C14.4003 9.126 14.1483 8.424 13.6443 7.908C13.1523 7.38 12.5223 7.116 11.7543 7.116ZM31.9104 4.884C33.1224 4.884 34.0764 5.262 34.7724 6.018C35.4804 6.762 35.8344 7.824 35.8344 9.204V15H33.3144V9.492C33.3144 8.724 33.1164 8.136 32.7204 7.728C32.3364 7.308 31.8024 7.098 31.1184 7.098C30.4104 7.098 29.8464 7.32 29.4264 7.764C29.0064 8.208 28.7964 8.856 28.7964 9.708V15H26.2764V9.492C26.2764 8.724 26.0784 8.136 25.6824 7.728C25.2984 7.308 24.7644 7.098 24.0804 7.098C23.3724 7.098 22.8084 7.32 22.3884 7.764C21.9684 8.208 21.7584 8.856 21.7584 9.708V15H19.2204V5.028H21.7584V6.918C22.0224 6.27 22.4364 5.772 23.0004 5.424C23.5764 5.064 24.2424 4.884 24.9984 4.884C25.8024 4.884 26.4984 5.076 27.0864 5.46C27.6864 5.844 28.1364 6.396 28.4364 7.116C28.7484 6.432 29.2104 5.892 29.8224 5.496C30.4464 5.088 31.1424 4.884 31.9104 4.884ZM47.4421 9.636C47.4421 9.888 47.4121 10.176 47.3521 10.5H40.0441C40.0801 11.388 40.3201 12.042 40.7641 12.462C41.2081 12.882 41.7601 13.092 42.4201 13.092C43.0081 13.092 43.4941 12.948 43.8781 12.66C44.2741 12.372 44.5261 11.982 44.6341 11.49H47.3161C47.1841 12.186 46.9021 12.81 46.4701 13.362C46.0381 13.914 45.4801 14.346 44.7961 14.658C44.1241 14.97 43.3741 15.126 42.5461 15.126C41.5741 15.126 40.7101 14.922 39.9541 14.514C39.1981 14.094 38.6101 13.5 38.1901 12.732C37.7701 11.964 37.5601 11.058 37.5601 10.014C37.5601 8.97 37.7701 8.064 38.1901 7.296C38.6101 6.516 39.1981 5.922 39.9541 5.514C40.7101 5.106 41.5741 4.902 42.5461 4.902C43.5301 4.902 44.3881 5.106 45.1201 5.514C45.8641 5.922 46.4341 6.486 46.8301 7.206C47.2381 7.914 47.4421 8.724 47.4421 9.636ZM44.8861 9.384C44.9221 8.568 44.7061 7.95 44.2381 7.53C43.7821 7.11 43.2181 6.9 42.5461 6.9C41.8621 6.9 41.2861 7.11 40.8181 7.53C40.3501 7.95 40.0921 8.568 40.0441 9.384H44.8861ZM52.6818 4.902C53.8938 4.902 54.8658 5.208 55.5978 5.82C56.3298 6.432 56.7858 7.248 56.9658 8.268H54.5898C54.4938 7.788 54.2778 7.404 53.9418 7.116C53.6058 6.828 53.1678 6.684 52.6278 6.684C52.1958 6.684 51.8598 6.786 51.6198 6.99C51.3798 7.194 51.2598 7.47 51.2598 7.818C51.2598 8.094 51.3558 8.316 51.5478 8.484C51.7398 8.652 51.9798 8.784 52.2678 8.88C52.5558 8.976 52.9698 9.09 53.5098 9.222C54.2658 9.39 54.8778 9.57 55.3458 9.762C55.8258 9.942 56.2338 10.236 56.5698 10.644C56.9178 11.04 57.0918 11.58 57.0918 12.264C57.0918 13.116 56.7558 13.806 56.0838 14.334C55.4238 14.862 54.5298 15.126 53.4018 15.126C52.1058 15.126 51.0678 14.838 50.2878 14.262C49.5078 13.674 49.0338 12.84 48.8658 11.76H51.2958C51.3558 12.252 51.5718 12.642 51.9438 12.93C52.3158 13.206 52.8018 13.344 53.4018 13.344C53.8338 13.344 54.1638 13.242 54.3918 13.038C54.6198 12.822 54.7338 12.546 54.7338 12.21C54.7338 11.922 54.6318 11.688 54.4278 11.508C54.2358 11.328 53.9898 11.19 53.6898 11.094C53.4018 10.998 52.9878 10.884 52.4478 10.752C51.7038 10.584 51.0978 10.416 50.6298 10.248C50.1738 10.068 49.7778 9.786 49.4418 9.402C49.1178 9.018 48.9558 8.49 48.9558 7.818C48.9558 6.954 49.2858 6.252 49.9458 5.712C50.6058 5.172 51.5178 4.902 52.6818 4.902ZM67.384 4.902C68.668 4.902 69.736 5.25 70.588 5.946C71.452 6.642 71.992 7.59 72.208 8.79H69.526C69.418 8.262 69.172 7.848 68.788 7.548C68.404 7.236 67.918 7.08 67.33 7.08C66.658 7.08 66.094 7.332 65.638 7.836C65.194 8.328 64.972 9.054 64.972 10.014C64.972 10.974 65.194 11.706 65.638 12.21C66.094 12.702 66.658 12.948 67.33 12.948C67.918 12.948 68.404 12.798 68.788 12.498C69.172 12.186 69.418 11.766 69.526 11.238H72.208C71.992 12.438 71.452 13.386 70.588 14.082C69.736 14.778 68.668 15.126 67.384 15.126C66.412 15.126 65.548 14.922 64.792 14.514C64.036 14.094 63.448 13.5 63.028 12.732C62.608 11.964 62.398 11.058 62.398 10.014C62.398 8.97 62.608 8.064 63.028 7.296C63.448 6.516 64.036 5.922 64.792 5.514C65.548 5.106 66.412 4.902 67.384 4.902ZM78.6194 4.902C79.5914 4.902 80.4614 5.106 81.2294 5.514C82.0094 5.922 82.6214 6.516 83.0654 7.296C83.5094 8.064 83.7314 8.97 83.7314 10.014C83.7314 11.058 83.5094 11.964 83.0654 12.732C82.6214 13.5 82.0094 14.094 81.2294 14.514C80.4614 14.922 79.5914 15.126 78.6194 15.126C77.6474 15.126 76.7714 14.922 75.9914 14.514C75.2234 14.094 74.6174 13.5 74.1734 12.732C73.7294 11.964 73.5074 11.058 73.5074 10.014C73.5074 8.97 73.7294 8.064 74.1734 7.296C74.6174 6.516 75.2234 5.922 75.9914 5.514C76.7714 5.106 77.6474 4.902 78.6194 4.902ZM78.6194 7.098C77.9114 7.098 77.3114 7.35 76.8194 7.854C76.3274 8.346 76.0814 9.066 76.0814 10.014C76.0814 10.962 76.3274 11.688 76.8194 12.192C77.3114 12.684 77.9114 12.93 78.6194 12.93C79.3274 12.93 79.9274 12.684 80.4194 12.192C80.9114 11.688 81.1574 10.962 81.1574 10.014C81.1574 9.066 80.9114 8.346 80.4194 7.854C79.9274 7.35 79.3274 7.098 78.6194 7.098ZM89.431 4.902C90.271 4.902 90.991 5.1 91.591 5.496C92.191 5.892 92.617 6.426 92.869 7.098V5.028H95.389V15H92.869V12.912C92.617 13.584 92.191 14.124 91.591 14.532C90.991 14.928 90.271 15.126 89.431 15.126C88.591 15.126 87.835 14.922 87.163 14.514C86.491 14.106 85.963 13.518 85.579 12.75C85.207 11.97 85.021 11.058 85.021 10.014C85.021 8.97 85.207 8.064 85.579 7.296C85.963 6.516 86.491 5.922 87.163 5.514C87.835 5.106 88.591 4.902 89.431 4.902ZM90.223 7.116C89.431 7.116 88.795 7.374 88.315 7.89C87.835 8.406 87.595 9.114 87.595 10.014C87.595 10.914 87.835 11.622 88.315 12.138C88.795 12.642 89.431 12.894 90.223 12.894C90.991 12.894 91.621 12.636 92.113 12.12C92.617 11.592 92.869 10.89 92.869 10.014C92.869 9.126 92.617 8.424 92.113 7.908C91.621 7.38 90.991 7.116 90.223 7.116ZM103.017 12.822V15H101.685C100.569 15 99.7111 14.73 99.1111 14.19C98.5231 13.65 98.2291 12.75 98.2291 11.49V7.17H96.8431V5.028H98.2291V2.562H100.767V5.028H102.999V7.17H100.767V11.526C100.767 12.006 100.863 12.342 101.055 12.534C101.247 12.726 101.571 12.822 102.027 12.822H103.017ZM114.221 9.636C114.221 9.888 114.191 10.176 114.131 10.5H106.823C106.859 11.388 107.099 12.042 107.543 12.462C107.987 12.882 108.539 13.092 109.199 13.092C109.787 13.092 110.273 12.948 110.657 12.66C111.053 12.372 111.305 11.982 111.413 11.49H114.095C113.963 12.186 113.681 12.81 113.249 13.362C112.817 13.914 112.259 14.346 111.575 14.658C110.903 14.97 110.153 15.126 109.325 15.126C108.353 15.126 107.489 14.922 106.733 14.514C105.977 14.094 105.389 13.5 104.969 12.732C104.549 11.964 104.339 11.058 104.339 10.014C104.339 8.97 104.549 8.064 104.969 7.296C105.389 6.516 105.977 5.922 106.733 5.514C107.489 5.106 108.353 4.902 109.325 4.902C110.309 4.902 111.167 5.106 111.899 5.514C112.643 5.922 113.213 6.486 113.609 7.206C114.017 7.914 114.221 8.724 114.221 9.636ZM111.665 9.384C111.701 8.568 111.485 7.95 111.017 7.53C110.561 7.11 109.997 6.9 109.325 6.9C108.641 6.9 108.065 7.11 107.597 7.53C107.129 7.95 106.871 8.568 106.823 9.384H111.665ZM119.461 4.902C120.673 4.902 121.645 5.208 122.377 5.82C123.109 6.432 123.565 7.248 123.745 8.268H121.369C121.273 7.788 121.057 7.404 120.721 7.116C120.385 6.828 119.947 6.684 119.407 6.684C118.975 6.684 118.639 6.786 118.399 6.99C118.159 7.194 118.039 7.47 118.039 7.818C118.039 8.094 118.135 8.316 118.327 8.484C118.519 8.652 118.759 8.784 119.047 8.88C119.335 8.976 119.749 9.09 120.289 9.222C121.045 9.39 121.657 9.57 122.125 9.762C122.605 9.942 123.013 10.236 123.349 10.644C123.697 11.04 123.871 11.58 123.871 12.264C123.871 13.116 123.535 13.806 122.863 14.334C122.203 14.862 121.309 15.126 120.181 15.126C118.885 15.126 117.847 14.838 117.067 14.262C116.287 13.674 115.813 12.84 115.645 11.76H118.075C118.135 12.252 118.351 12.642 118.723 12.93C119.095 13.206 119.581 13.344 120.181 13.344C120.613 13.344 120.943 13.242 121.171 13.038C121.399 12.822 121.513 12.546 121.513 12.21C121.513 11.922 121.411 11.688 121.207 11.508C121.015 11.328 120.769 11.19 120.469 11.094C120.181 10.998 119.767 10.884 119.227 10.752C118.483 10.584 117.877 10.416 117.409 10.248C116.953 10.068 116.557 9.786 116.221 9.402C115.897 9.018 115.735 8.49 115.735 7.818C115.735 6.954 116.065 6.252 116.725 5.712C117.385 5.172 118.297 4.902 119.461 4.902Z" fill="currentColor"/>
</svg>
