<svg width="150" height="144" viewBox="0 0 150 144" fill="none" xmlns="http://www.w3.org/2000/svg">
<g clip-path="url(#clip0)">
<mask id="path-1-inside-1" fill="white">
<path d="M0.693613 116.51C0.693613 116.51 9.27275 117.21 8.7475 122.461C8.22225 127.712 12.4243 120.011 13.2997 116.773C14.1751 113.535 18.5522 116.773 18.5522 116.773C18.5522 116.773 20.3031 113.447 20.4782 112.835C20.6532 112.222 38.4243 121.411 39.2997 121.586C40.1752 121.761 46.4782 108.459 46.4782 108.459C46.4782 108.459 71.1651 115.898 72.3032 115.635C73.4412 115.372 73.0035 111.697 73.0035 111.697L85.4345 112.397L84.1214 107.146L95.0641 115.022L107.758 114.147L114.061 118.348L126.317 113.097L127.63 114.847L131.132 110.909L137.259 110.209L139.01 101.02L128.943 102.596L127.63 97.3448C127.63 97.3448 120.626 97.1698 121.064 96.4697C121.502 95.7696 130.256 95.7696 130.256 95.7696L132.882 90.6939C132.882 90.6939 129.206 89.6437 128.943 89.3812C128.68 89.1186 135.246 89.3812 135.246 89.3812L138.31 87.4559L135.859 84.1304L140.236 85.1806C140.236 85.1806 153.192 72.9288 149.866 64.615C146.539 56.3013 134.546 51.9257 129.031 52.3632C123.515 52.8008 124.566 57.439 124.566 57.439C124.566 57.439 120.889 57.0014 119.751 53.9385C118.613 50.8755 120.626 51.138 124.566 49.7378C128.505 48.3376 124.128 39.0613 122.202 35.5607C120.276 32.0602 122.377 33.1979 124.216 32.3228C126.054 31.4476 122.027 25.4968 120.014 21.8212C118 18.1457 120.977 17.7956 122.64 16.3079C124.303 14.8202 119.576 11.7572 117.3 9.83195C115.024 7.90667 114.148 -0.319545 106.357 -0.669597C98.5658 -1.01965 101.98 -25.8733 103.03 -29.6364C104.081 -33.3994 99.0035 -30.0739 96.3773 -40.4004C93.751 -50.727 89.1113 -46.9639 86.5725 -47.2265C84.0338 -47.489 76.9429 -44.426 75.8048 -47.4015C74.6668 -50.3769 80.182 -49.7643 82.1954 -49.4143C84.2089 -49.0642 83.5086 -50.2894 84.5591 -51.8646C85.6096 -53.4399 91.8251 -46.6139 91.5624 -52.1272C91.2998 -57.6405 87.8857 -57.3779 87.8857 -57.3779L89.4614 -59.3032C89.4614 -59.3032 105.919 -74.1804 106.094 -80.4814C106.27 -86.7823 111.172 -84.1569 111.172 -88.5325C111.172 -92.9082 94.8015 -95.7086 92.1752 -95.271C89.549 -94.8335 86.2224 -98.9466 84.2964 -97.6339C82.3705 -96.3212 79.0439 -94.1334 77.9059 -94.8335C76.7678 -95.5336 70.6399 -93.6958 70.7274 -95.7086C70.8149 -97.7214 73.6163 -100.259 74.9294 -99.0341C76.2426 -97.8089 77.7308 -98.5965 77.7308 -98.5965C77.7308 -98.5965 80.357 -100.959 80.6197 -101.659C80.8823 -102.36 78.6062 -102.535 77.3806 -102.535C76.155 -102.535 75.8924 -103.235 76.3301 -103.672C76.7678 -104.11 93.4008 -115.311 93.8385 -116.099C94.2763 -116.799 97.0776 -120.475 97.1651 -122.663C97.2527 -124.85 76.5927 -125.726 76.3301 -124.588C76.0675 -123.45 74.1415 -121.525 74.1415 -121.525C74.1415 -121.525 73.8789 -123.975 73.2661 -125.638C72.6533 -127.301 67.5759 -132.814 66.7005 -129.314C65.825 -125.813 65.2122 -123.625 64.3368 -123.625C63.4614 -123.625 58.2089 -121.612 65.825 -118.374C73.4412 -115.136 64.7745 -115.136 62.0607 -117.499C59.3469 -119.862 58.8217 -120.387 59.4344 -117.237L59.6095 -113.911L56.3705 -116.099C56.3705 -116.099 54.2695 -113.999 56.7206 -111.986C59.1718 -109.973 59.3469 -110.323 57.9462 -109.361C56.5456 -108.398 56.0203 -109.186 54.2695 -111.023C52.5186 -112.861 51.9934 -109.361 52.9563 -107.348C53.9193 -105.335 51.9934 -106.123 51.2055 -107.348C50.4176 -108.573 49.2795 -111.023 48.4041 -109.448C47.5287 -107.873 49.4546 -102.272 51.2055 -99.9967C52.9563 -97.7214 51.9934 -90.8079 51.7307 -90.4578C51.4681 -90.1078 46.3031 -91.4205 46.8284 -89.6702C47.3536 -87.9199 52.6062 -86.6948 50.8553 -85.207C49.1045 -83.7193 46.9159 -83.3693 45.2526 -85.1195C43.5893 -86.8698 39.0371 -83.8068 41.7509 -80.6564C44.4647 -77.5059 42.7139 -77.3309 40.5253 -78.381C38.3368 -79.4312 35.1852 -80.3063 35.3603 -78.206C35.5354 -76.1057 35.7105 -75.6681 35.7105 -75.6681C35.7105 -75.6681 32.0337 -76.1057 32.7341 -74.3554C33.4344 -72.6052 36.6735 -73.6553 37.2863 -72.2551C37.8991 -70.8549 36.0607 -67.967 34.1347 -67.8795C32.2088 -67.792 28.0943 -68.4046 30.458 -65.9542C32.8216 -63.5039 40.4378 -64.9916 42.2762 -67.7045C44.1146 -70.4174 44.8149 -71.2925 45.3401 -71.7301C45.8654 -72.1676 48.054 -73.8304 48.054 -73.8304L51.3806 -75.6681L51.8183 -73.9179L47.5287 -70.4174L45.9529 -67.0919L42.8014 -64.0289C42.9765 -61.8411 42.3637 -57.0279 42.3637 -57.0279L37.724 -54.2275C37.724 -54.2275 40.7004 -53.8774 41.6634 -54.5775C42.6263 -55.2776 38.5119 -51.077 38.5119 -51.077L40.4378 -49.1517C40.4378 -49.1517 36.761 -47.2265 36.2358 -43.7259C35.7105 -40.2254 33.1718 -37.425 32.559 -36.8999C31.9462 -36.3749 31.5085 -34.2745 33.4344 -34.187C35.3603 -34.0995 37.8115 -35.4997 37.8115 -35.4997L39.1247 -39.3503L39.9125 -41.6256L41.1381 -45.6512L43.9395 -47.489L44.2896 -50.9895L43.4142 -53.7899L52.9563 -59.4783C52.9563 -59.4783 52.6062 -54.4025 53.6567 -52.1272C54.7072 -49.8518 58.4715 -49.1517 58.4715 -49.1517L52.5186 -49.9394C52.5186 -49.9394 50.4176 -43.901 50.4176 -43.3759C50.4176 -42.8508 53.4816 -37.075 53.4816 -37.075L48.6668 -32.1742L44.1146 -25.6108L43.6768 -21.7602C43.6768 -21.7602 40.963 -21.3226 40.6129 -21.2351C40.2627 -21.1476 45.6903 -16.947 45.6903 -16.947L47.091 -18.7848L51.9934 -11.6087L53.7442 -13.884C53.7442 -13.884 53.394 -18.4347 53.394 -18.6973C53.394 -18.9598 58.2089 -12.6589 58.2089 -12.6589L61.5355 -13.359C61.5355 -13.359 65.4749 -17.0345 66.9631 -15.2842C68.4513 -13.534 70.3772 -17.122 70.3772 -17.122L73.1786 -16.1594L76.3301 -16.0719L75.6298 -14.4966C75.6298 -14.4966 70.3772 -15.3718 69.852 -13.4465C69.3267 -11.5212 64.0742 -5.13275 64.0742 -5.13275C64.0742 -5.13275 65.7375 -3.20747 66.7005 -0.0570092C67.6634 3.09345 66.1752 5.10626 66.1752 5.10626L67.4008 6.15641L69.5893 5.10626L69.4143 9.13184V9.65693L71.953 10.4445L75.3671 6.50646L76.155 8.69428L73.6163 12.0198L74.5793 13.595L74.054 15.1702L69.7644 14.4701L68.889 17.6206L71.953 19.8959L71.8654 21.4712L67.4883 24.6216L68.1887 28.2972L73.8789 32.3228L71.953 34.5106L67.926 29.1723L66.1752 30.835L67.8385 33.3729L66.0001 35.4732L64.5994 31.5352C64.5994 31.5352 61.1853 29.8724 60.2223 31.3601C59.2594 32.8478 57.5085 33.1979 56.5456 32.0602C55.5826 30.9226 54.357 29.2598 54.357 29.2598C54.357 29.2598 52.5186 31.0976 52.4311 31.4476C52.3435 31.7977 48.5792 31.6227 48.5792 31.6227L49.8923 28.8222L44.6398 23.2214L41.3132 26.2844L44.4647 32.5853L40.2627 37.6611C40.2627 37.6611 35.9731 40.374 35.9731 39.9364C35.9731 39.4988 37.724 43.962 37.724 43.962L43.7644 39.5863L47.2661 44.0495L47.3536 52.3632L37.2863 61.1145L32.4714 60.5894L29.1448 64.615L20.128 63.0398L19.3401 71.0035L21.5287 72.2286L23.6297 75.8167L28.4445 76.1667L31.0708 73.1913L35.9731 73.2788L36.761 80.6299L40.3502 80.2798L42.1886 78.5296L44.7274 79.3172L46.5657 85.2681L50.9429 88.9436L54.5321 88.4185L58.559 84.1304L61.3604 84.8305L63.4614 85.8807L58.9092 89.5562L57.2459 93.2317C57.2459 93.2317 57.421 93.7568 57.1583 93.7568C56.8957 93.7568 51.4681 94.982 51.4681 94.982L44.027 90.2563C44.027 90.2563 36.5859 90.6939 36.3233 90.3438C36.0607 89.9938 32.9091 95.9446 32.9091 95.9446H30.2829L28.7071 93.0567L25.9058 95.7696L27.2189 100.145L20.3906 105.221C20.3906 105.221 18.7273 104.521 18.2896 104.521C17.8519 104.521 16.3637 107.934 16.3637 107.934C16.3637 107.934 12.7744 109.772 12.862 109.597C12.9495 109.422 11.6364 112.747 11.6364 112.747L3.67005 112.835L0.343445 113.272L0.693613 116.51Z"/>
</mask>
<path d="M0.693613 116.51C0.693613 116.51 9.27275 117.21 8.7475 122.461C8.22225 127.712 12.4243 120.011 13.2997 116.773C14.1751 113.535 18.5522 116.773 18.5522 116.773C18.5522 116.773 20.3031 113.447 20.4782 112.835C20.6532 112.222 38.4243 121.411 39.2997 121.586C40.1752 121.761 46.4782 108.459 46.4782 108.459C46.4782 108.459 71.1651 115.898 72.3032 115.635C73.4412 115.372 73.0035 111.697 73.0035 111.697L85.4345 112.397L84.1214 107.146L95.0641 115.022L107.758 114.147L114.061 118.348L126.317 113.097L127.63 114.847L131.132 110.909L137.259 110.209L139.01 101.02L128.943 102.596L127.63 97.3448C127.63 97.3448 120.626 97.1698 121.064 96.4697C121.502 95.7696 130.256 95.7696 130.256 95.7696L132.882 90.6939C132.882 90.6939 129.206 89.6437 128.943 89.3812C128.68 89.1186 135.246 89.3812 135.246 89.3812L138.31 87.4559L135.859 84.1304L140.236 85.1806C140.236 85.1806 153.192 72.9288 149.866 64.615C146.539 56.3013 134.546 51.9257 129.031 52.3632C123.515 52.8008 124.566 57.439 124.566 57.439C124.566 57.439 120.889 57.0014 119.751 53.9385C118.613 50.8755 120.626 51.138 124.566 49.7378C128.505 48.3376 124.128 39.0613 122.202 35.5607C120.276 32.0602 122.377 33.1979 124.216 32.3228C126.054 31.4476 122.027 25.4968 120.014 21.8212C118 18.1457 120.977 17.7956 122.64 16.3079C124.303 14.8202 119.576 11.7572 117.3 9.83195C115.024 7.90667 114.148 -0.319545 106.357 -0.669597C98.5658 -1.01965 101.98 -25.8733 103.03 -29.6364C104.081 -33.3994 99.0035 -30.0739 96.3773 -40.4004C93.751 -50.727 89.1113 -46.9639 86.5725 -47.2265C84.0338 -47.489 76.9429 -44.426 75.8048 -47.4015C74.6668 -50.3769 80.182 -49.7643 82.1954 -49.4143C84.2089 -49.0642 83.5086 -50.2894 84.5591 -51.8646C85.6096 -53.4399 91.8251 -46.6139 91.5624 -52.1272C91.2998 -57.6405 87.8857 -57.3779 87.8857 -57.3779L89.4614 -59.3032C89.4614 -59.3032 105.919 -74.1804 106.094 -80.4814C106.27 -86.7823 111.172 -84.1569 111.172 -88.5325C111.172 -92.9082 94.8015 -95.7086 92.1752 -95.271C89.549 -94.8335 86.2224 -98.9466 84.2964 -97.6339C82.3705 -96.3212 79.0439 -94.1334 77.9059 -94.8335C76.7678 -95.5336 70.6399 -93.6958 70.7274 -95.7086C70.8149 -97.7214 73.6163 -100.259 74.9294 -99.0341C76.2426 -97.8089 77.7308 -98.5965 77.7308 -98.5965C77.7308 -98.5965 80.357 -100.959 80.6197 -101.659C80.8823 -102.36 78.6062 -102.535 77.3806 -102.535C76.155 -102.535 75.8924 -103.235 76.3301 -103.672C76.7678 -104.11 93.4008 -115.311 93.8385 -116.099C94.2763 -116.799 97.0776 -120.475 97.1651 -122.663C97.2527 -124.85 76.5927 -125.726 76.3301 -124.588C76.0675 -123.45 74.1415 -121.525 74.1415 -121.525C74.1415 -121.525 73.8789 -123.975 73.2661 -125.638C72.6533 -127.301 67.5759 -132.814 66.7005 -129.314C65.825 -125.813 65.2122 -123.625 64.3368 -123.625C63.4614 -123.625 58.2089 -121.612 65.825 -118.374C73.4412 -115.136 64.7745 -115.136 62.0607 -117.499C59.3469 -119.862 58.8217 -120.387 59.4344 -117.237L59.6095 -113.911L56.3705 -116.099C56.3705 -116.099 54.2695 -113.999 56.7206 -111.986C59.1718 -109.973 59.3469 -110.323 57.9462 -109.361C56.5456 -108.398 56.0203 -109.186 54.2695 -111.023C52.5186 -112.861 51.9934 -109.361 52.9563 -107.348C53.9193 -105.335 51.9934 -106.123 51.2055 -107.348C50.4176 -108.573 49.2795 -111.023 48.4041 -109.448C47.5287 -107.873 49.4546 -102.272 51.2055 -99.9967C52.9563 -97.7214 51.9934 -90.8079 51.7307 -90.4578C51.4681 -90.1078 46.3031 -91.4205 46.8284 -89.6702C47.3536 -87.9199 52.6062 -86.6948 50.8553 -85.207C49.1045 -83.7193 46.9159 -83.3693 45.2526 -85.1195C43.5893 -86.8698 39.0371 -83.8068 41.7509 -80.6564C44.4647 -77.5059 42.7139 -77.3309 40.5253 -78.381C38.3368 -79.4312 35.1852 -80.3063 35.3603 -78.206C35.5354 -76.1057 35.7105 -75.6681 35.7105 -75.6681C35.7105 -75.6681 32.0337 -76.1057 32.7341 -74.3554C33.4344 -72.6052 36.6735 -73.6553 37.2863 -72.2551C37.8991 -70.8549 36.0607 -67.967 34.1347 -67.8795C32.2088 -67.792 28.0943 -68.4046 30.458 -65.9542C32.8216 -63.5039 40.4378 -64.9916 42.2762 -67.7045C44.1146 -70.4174 44.8149 -71.2925 45.3401 -71.7301C45.8654 -72.1676 48.054 -73.8304 48.054 -73.8304L51.3806 -75.6681L51.8183 -73.9179L47.5287 -70.4174L45.9529 -67.0919L42.8014 -64.0289C42.9765 -61.8411 42.3637 -57.0279 42.3637 -57.0279L37.724 -54.2275C37.724 -54.2275 40.7004 -53.8774 41.6634 -54.5775C42.6263 -55.2776 38.5119 -51.077 38.5119 -51.077L40.4378 -49.1517C40.4378 -49.1517 36.761 -47.2265 36.2358 -43.7259C35.7105 -40.2254 33.1718 -37.425 32.559 -36.8999C31.9462 -36.3749 31.5085 -34.2745 33.4344 -34.187C35.3603 -34.0995 37.8115 -35.4997 37.8115 -35.4997L39.1247 -39.3503L39.9125 -41.6256L41.1381 -45.6512L43.9395 -47.489L44.2896 -50.9895L43.4142 -53.7899L52.9563 -59.4783C52.9563 -59.4783 52.6062 -54.4025 53.6567 -52.1272C54.7072 -49.8518 58.4715 -49.1517 58.4715 -49.1517L52.5186 -49.9394C52.5186 -49.9394 50.4176 -43.901 50.4176 -43.3759C50.4176 -42.8508 53.4816 -37.075 53.4816 -37.075L48.6668 -32.1742L44.1146 -25.6108L43.6768 -21.7602C43.6768 -21.7602 40.963 -21.3226 40.6129 -21.2351C40.2627 -21.1476 45.6903 -16.947 45.6903 -16.947L47.091 -18.7848L51.9934 -11.6087L53.7442 -13.884C53.7442 -13.884 53.394 -18.4347 53.394 -18.6973C53.394 -18.9598 58.2089 -12.6589 58.2089 -12.6589L61.5355 -13.359C61.5355 -13.359 65.4749 -17.0345 66.9631 -15.2842C68.4513 -13.534 70.3772 -17.122 70.3772 -17.122L73.1786 -16.1594L76.3301 -16.0719L75.6298 -14.4966C75.6298 -14.4966 70.3772 -15.3718 69.852 -13.4465C69.3267 -11.5212 64.0742 -5.13275 64.0742 -5.13275C64.0742 -5.13275 65.7375 -3.20747 66.7005 -0.0570092C67.6634 3.09345 66.1752 5.10626 66.1752 5.10626L67.4008 6.15641L69.5893 5.10626L69.4143 9.13184V9.65693L71.953 10.4445L75.3671 6.50646L76.155 8.69428L73.6163 12.0198L74.5793 13.595L74.054 15.1702L69.7644 14.4701L68.889 17.6206L71.953 19.8959L71.8654 21.4712L67.4883 24.6216L68.1887 28.2972L73.8789 32.3228L71.953 34.5106L67.926 29.1723L66.1752 30.835L67.8385 33.3729L66.0001 35.4732L64.5994 31.5352C64.5994 31.5352 61.1853 29.8724 60.2223 31.3601C59.2594 32.8478 57.5085 33.1979 56.5456 32.0602C55.5826 30.9226 54.357 29.2598 54.357 29.2598C54.357 29.2598 52.5186 31.0976 52.4311 31.4476C52.3435 31.7977 48.5792 31.6227 48.5792 31.6227L49.8923 28.8222L44.6398 23.2214L41.3132 26.2844L44.4647 32.5853L40.2627 37.6611C40.2627 37.6611 35.9731 40.374 35.9731 39.9364C35.9731 39.4988 37.724 43.962 37.724 43.962L43.7644 39.5863L47.2661 44.0495L47.3536 52.3632L37.2863 61.1145L32.4714 60.5894L29.1448 64.615L20.128 63.0398L19.3401 71.0035L21.5287 72.2286L23.6297 75.8167L28.4445 76.1667L31.0708 73.1913L35.9731 73.2788L36.761 80.6299L40.3502 80.2798L42.1886 78.5296L44.7274 79.3172L46.5657 85.2681L50.9429 88.9436L54.5321 88.4185L58.559 84.1304L61.3604 84.8305L63.4614 85.8807L58.9092 89.5562L57.2459 93.2317C57.2459 93.2317 57.421 93.7568 57.1583 93.7568C56.8957 93.7568 51.4681 94.982 51.4681 94.982L44.027 90.2563C44.027 90.2563 36.5859 90.6939 36.3233 90.3438C36.0607 89.9938 32.9091 95.9446 32.9091 95.9446H30.2829L28.7071 93.0567L25.9058 95.7696L27.2189 100.145L20.3906 105.221C20.3906 105.221 18.7273 104.521 18.2896 104.521C17.8519 104.521 16.3637 107.934 16.3637 107.934C16.3637 107.934 12.7744 109.772 12.862 109.597C12.9495 109.422 11.6364 112.747 11.6364 112.747L3.67005 112.835L0.343445 113.272L0.693613 116.51Z" fill="white" stroke="white" stroke-opacity="0.5" stroke-width="2" mask="url(#path-1-inside-1)"/>
<circle cx="110.5" cy="84.5" r="3.5" fill="#202436"/>
<circle cx="87.5" cy="80.5" r="3.5" fill="#202436"/>
<circle cx="71.5" cy="94.5" r="3.5" fill="#202436"/>
</g>
<defs>
<clipPath id="clip0">
<rect width="150" height="144" fill="white"/>
</clipPath>
</defs>
</svg>
