<svg width="600" height="400" viewBox="0 0 600 400" fill="none" xmlns="http://www.w3.org/2000/svg">
<g clip-path="url(#clip0)">
<path d="M222.859 357.84C224.241 357.84 227.202 357.248 232.334 348.559C239.243 336.909 236.875 333.157 241.02 328.418C248.718 319.335 269.84 318.347 280.302 327.233C286.816 332.96 287.21 340.858 293.922 342.043C298.462 342.833 300.041 339.279 305.766 340.069C313.267 340.858 315.635 347.177 319.781 345.795C323.531 344.61 322.347 338.884 326.689 336.712C331.23 334.342 335.375 339.081 343.863 339.871C351.167 340.463 356.299 337.501 359.457 336.317C382.552 327.628 409.596 367.714 438.415 360.012C451.246 356.656 463.879 343.82 473.354 349.547C475.526 350.732 478.289 353.496 481.448 352.706C485.395 351.719 485.198 346.782 489.738 343.228C495.265 338.884 500.003 342.833 507.109 339.674C515.794 335.724 521.519 324.074 518.558 318.94C516.979 315.978 513.623 316.768 503.161 314.201C500.398 313.608 480.855 308.672 481.053 304.13C481.25 300.97 490.725 301.958 494.476 295.047C497.239 289.715 494.278 284.581 497.634 281.619C500.2 279.447 503.951 280.237 505.53 280.434C521.124 282.409 545.601 255.356 556.853 226.526C560.011 218.233 561.787 214.086 561.195 209.544C558.234 182.491 511.452 170.446 501.582 169.656C499.016 169.459 496.252 169.261 492.896 170.446C486.975 172.421 485.593 176.37 482.04 176.173C478.092 175.975 474.144 170.644 474.736 166.694C475.526 162.153 481.842 162.153 486.382 158.006C494.673 150.502 490.528 135.1 487.962 118.71C483.619 90.8678 489.343 96.5942 484.803 64.4075C480.658 33.8004 478.092 16.4235 464.472 7.14263C455.589 1.02122 452.628 5.95786 445.127 0.0339125C422.426 -17.1455 428.546 -74.4104 435.849 -87.838C436.441 -88.8253 438.613 -92.5772 437.428 -96.5265C436.047 -100.871 431.506 -102.055 427.953 -104.623C419.268 -110.744 424.203 -120.222 417.689 -131.675C412.162 -141.548 401.897 -146.485 381.171 -156.161C373.077 -159.913 364.984 -163.072 365.379 -164.849C365.774 -166.626 374.854 -164.257 386.106 -168.404C390.053 -169.786 396.962 -172.353 397.554 -177.092C398.344 -182.621 389.659 -185.386 389.856 -190.717C390.053 -196.246 399.923 -198.023 407.819 -203.158C429.533 -217.178 417.491 -243.045 440.389 -263.187C448.285 -270.098 455.194 -271.875 460.918 -282.341C462.103 -284.513 468.617 -296.163 464.077 -303.272C460.524 -308.801 452.628 -308.011 441.376 -309.394C410.977 -313.145 409.201 -326.573 386.5 -326.376C367.945 -326.178 353.93 -317.292 352.548 -320.057C350.969 -323.216 369.13 -332.497 367.156 -341.975C365.971 -347.504 358.865 -347.702 358.273 -352.046C357.286 -359.55 376.433 -365.079 398.541 -381.271C407.424 -387.787 429.138 -403.584 425.782 -413.853C424.005 -419.184 416.11 -420.961 409.201 -422.739C389.066 -427.478 380.776 -419.579 363.602 -420.961C339.52 -422.936 336.757 -439.72 323.926 -435.771C305.173 -430.242 289.579 -386.997 286.026 -375.347C285.434 -373.372 283.262 -365.869 278.92 -365.079C274.774 -364.486 272.801 -370.213 268.458 -370.015C264.707 -369.818 263.326 -364.881 255.232 -348.887C249.31 -337.039 247.139 -333.879 247.731 -327.955C248.126 -323.019 250.1 -322.624 251.482 -317.292C254.048 -307.814 250.495 -299.52 244.573 -285.895C239.441 -273.85 236.677 -267.729 231.15 -265.556C224.439 -262.792 218.122 -266.544 215.556 -262.792C213.779 -260.422 214.766 -255.881 217.135 -253.709C220.293 -250.747 224.636 -253.709 227.4 -250.944C229.768 -248.574 227.4 -245.218 229.176 -240.873C231.347 -235.344 236.48 -236.134 239.441 -232.382C246.35 -223.299 225.82 -207.107 226.018 -179.659C226.018 -172.156 227.597 -168.601 225.426 -162.085C222.07 -152.212 214.766 -148.855 215.753 -141.548C216.345 -137.007 219.701 -132.663 222.07 -133.057C226.413 -133.65 223.649 -148.46 231.94 -154.384C239.243 -159.715 253.653 -156.358 260.957 -148.065C272.011 -135.427 262.931 -115.088 260.562 -109.757C258.193 -104.425 252.864 -92.5771 241.612 -87.838C237.467 -86.0608 235.295 -86.4557 233.716 -84.0862C229.768 -78.3597 239.243 -71.4484 237.664 -57.6258C237.072 -52.8867 235.493 -49.1349 237.467 -47.5551C239.046 -46.3704 242.204 -46.9628 244.178 -48.5425C248.323 -51.7019 246.152 -57.8233 248.521 -58.8106C252.469 -60.3904 260.957 -43.0134 266.484 -44.7906C268.26 -45.383 267.866 -47.1602 272.603 -52.2943C276.551 -56.6385 278.328 -56.836 278.92 -56.6385C280.696 -56.2436 281.289 -54.2689 282.473 -52.8867C288.197 -46.5678 306.358 -59.798 313.859 -54.2689C318.004 -51.1095 317.215 -43.6059 316.622 -35.3123C315.635 -25.0442 312.872 -23.4644 310.898 -13.9861C308.529 -2.73061 308.134 15.8311 316.82 20.7677C321.755 23.5322 326.097 19.7804 329.058 22.7424C332.611 26.4942 328.466 33.9979 323.334 52.3621C318.004 70.9238 320.175 71.3188 316.82 75.8605C307.542 88.6957 288.197 90.4728 280.696 91.0652C264.313 92.4475 259.378 87.5109 249.903 92.645C242.007 96.7917 244.178 100.938 234.111 107.85C223.254 115.156 214.174 114.958 212.99 120.882C212.397 123.449 213.582 126.609 215.753 127.991C216.345 128.386 218.517 129.571 224.636 127.201C232.927 124.042 234.506 120.093 236.875 120.487C244.77 121.475 253.653 166.102 237.269 176.962C232.137 180.319 228.781 177.752 209.239 182.689C200.751 184.861 201.738 185.256 194.04 187.033C177.853 190.785 167.391 190.193 166.799 193.55C166.404 196.314 173.511 198.289 173.116 202.633C172.918 205.792 168.97 206.385 167.984 209.939C166.602 214.876 172.524 223.169 179.235 224.354C186.341 225.736 188.71 218.233 198.777 217.838C205.489 217.64 213.384 220.405 214.964 225.341C216.148 229.291 212.397 231.66 213.977 234.82C215.951 238.966 224.439 240.546 230.558 238.572C233.914 237.584 234.901 236.004 236.677 236.399C239.835 237.387 239.638 242.718 242.007 248.05C245.955 256.738 257.009 263.847 265.497 262.662C270.827 261.872 271.024 258.121 281.091 254.566C284.249 253.381 290.961 251.209 292.54 253.381C293.922 255.356 291.158 259.7 289.382 261.872C285.236 267.204 281.486 266.414 278.92 270.956C276.748 274.905 278.525 277.077 276.748 279.447C273.59 283.396 265.102 281.421 257.009 279.052C231.15 271.746 217.925 263.057 212.595 267.796C211.411 268.784 212.2 269.179 208.45 275.103C205.291 280.434 203.515 283.001 201.541 283.594C197.001 284.976 193.645 279.249 190.289 280.434C186.144 282.014 189.697 290.702 184.762 298.206C178.248 308.474 164.233 303.537 158.311 314.201C157.127 316.373 155.745 319.927 151.797 323.087C149.428 325.061 147.454 325.654 145.48 326.641C135.216 331.183 135.808 334.737 128.702 337.304C119.819 340.463 114.292 336.317 111.134 340.266C108.962 343.031 109.357 347.77 111.331 348.954C114.095 350.534 118.24 343.82 122.78 345.005C127.912 346.387 126.728 355.471 133.242 358.433C136.203 359.815 139.756 359.42 142.125 358.038C146.467 355.866 146.665 351.127 148.639 347.375C155.35 335.922 180.814 336.317 196.014 341.253C205.094 344.215 211.213 346.19 215.951 351.916C218.714 354.878 220.096 357.84 222.859 357.84Z" fill="white"/>
<rect x="314.029" y="279" width="16" height="16" rx="8" transform="rotate(-45 314.029 279)" fill="#202436"/>
<rect x="308.707" y="279" width="23.5267" height="23.5267" rx="11.7634" transform="rotate(-45 308.707 279)" stroke="black" stroke-opacity="0.2"/>
<rect x="384.029" y="250.343" width="16" height="16" rx="8" transform="rotate(-45 384.029 250.343)" fill="#202436"/>
<rect x="378.707" y="250.343" width="23.5267" height="23.5267" rx="11.7634" transform="rotate(-45 378.707 250.343)" stroke="black" stroke-opacity="0.2"/>
<rect x="440.029" y="279.343" width="16" height="16" rx="8" transform="rotate(-45 440.029 279.343)" fill="#202436"/>
<rect x="434.707" y="279.343" width="23.5267" height="23.5267" rx="11.7634" transform="rotate(-45 434.707 279.343)" stroke="black" stroke-opacity="0.2"/>
</g>
<defs>
<clipPath id="clip0">
<rect width="475" height="361" fill="white" transform="translate(86)"/>
</clipPath>
</defs>
</svg>
