<svg width="415" height="319" viewBox="0 0 415 319" fill="none" xmlns="http://www.w3.org/2000/svg">
<g clip-path="url(#clip0)">
<path d="M32.4352 298.891C32.4352 298.891 54.3569 300.681 53.0147 314.103C51.6726 327.526 62.4097 307.839 64.6466 299.562C66.8836 291.285 78.0681 299.562 78.0681 299.562C78.0681 299.562 82.5419 291.061 82.9893 289.495C83.4367 287.929 128.846 311.419 131.083 311.866C133.32 312.314 149.425 278.31 149.425 278.31C149.425 278.31 212.506 297.325 215.414 296.654C218.322 295.983 217.204 286.587 217.204 286.587L248.968 288.377L245.613 274.954L273.574 295.088L306.009 292.851L322.115 303.589L353.432 290.167L356.787 294.641L365.735 284.574L381.393 282.784L385.867 259.295L360.142 263.322L356.787 249.899C356.787 249.899 338.892 249.452 340.01 247.662C341.129 245.873 363.498 245.873 363.498 245.873L370.208 232.898C370.208 232.898 360.813 230.213 360.142 229.542C359.471 228.871 376.248 229.542 376.248 229.542L384.077 224.62L377.814 216.12L388.998 218.804C388.998 218.804 422.105 187.485 413.604 166.233C405.104 144.981 374.458 133.795 360.366 134.914C346.273 136.032 348.958 147.889 348.958 147.889C348.958 147.889 339.563 146.77 336.655 138.941C333.747 131.111 338.892 131.782 348.958 128.203C359.024 124.623 347.839 100.91 342.918 91.9622C337.997 83.0139 343.365 85.922 348.063 83.685C352.76 81.4479 342.471 66.2358 337.326 56.8401C332.181 47.4444 339.786 46.5496 344.037 42.7466C348.287 38.9436 336.207 31.1138 330.391 26.1923C324.575 21.2707 322.338 0.242271 302.43 -0.652557C282.522 -1.54738 291.245 -65.0802 293.93 -74.6996C296.614 -84.319 283.64 -75.8181 276.929 -102.216C270.219 -128.613 258.363 -118.994 251.876 -119.665C245.389 -120.336 227.27 -112.506 224.362 -120.112C221.454 -127.718 235.546 -126.152 240.691 -125.257C245.836 -124.363 244.047 -127.494 246.731 -131.521C249.415 -135.548 265.297 -118.099 264.626 -132.192C263.955 -146.286 255.231 -145.615 255.231 -145.615L259.258 -150.536C259.258 -150.536 301.312 -188.566 301.759 -204.673C302.206 -220.78 314.733 -214.069 314.733 -225.254C314.733 -236.44 272.903 -243.598 266.192 -242.48C259.481 -241.361 250.981 -251.876 246.06 -248.52C241.139 -245.164 232.638 -239.572 229.73 -241.361C226.823 -243.151 211.164 -238.453 211.388 -243.598C211.612 -248.744 218.77 -255.231 222.125 -252.099C225.48 -248.967 229.283 -250.981 229.283 -250.981C229.283 -250.981 235.994 -257.021 236.665 -258.81C237.336 -260.6 231.52 -261.048 228.388 -261.048C225.257 -261.048 224.586 -262.837 225.704 -263.956C226.823 -265.074 269.324 -293.709 270.442 -295.722C271.561 -297.512 278.719 -306.907 278.942 -312.5C279.166 -318.093 226.375 -320.33 225.704 -317.422C225.033 -314.513 220.112 -309.592 220.112 -309.592C220.112 -309.592 219.441 -315.856 217.875 -320.106C216.309 -324.357 203.335 -338.45 201.098 -329.502C198.861 -320.554 197.295 -314.961 195.058 -314.961C192.822 -314.961 179.4 -309.816 198.861 -301.538C218.322 -293.261 196.177 -293.261 189.242 -299.301C182.308 -305.341 180.966 -306.684 182.532 -298.63L182.979 -290.129L174.703 -295.722C174.703 -295.722 169.334 -290.353 175.597 -285.208C181.861 -280.063 182.308 -280.957 178.729 -278.497C175.15 -276.036 173.808 -278.049 169.334 -282.747C164.86 -287.445 163.518 -278.497 165.979 -273.351C168.439 -268.206 163.518 -270.219 161.505 -273.351C159.492 -276.483 156.584 -282.747 154.347 -278.72C152.11 -274.694 157.031 -260.376 161.505 -254.56C165.979 -248.744 163.518 -231.071 162.847 -230.176C162.176 -229.281 148.978 -232.637 150.32 -228.163C151.662 -223.688 165.084 -220.557 160.61 -216.754C156.136 -212.951 150.544 -212.056 146.294 -216.53C142.044 -221.004 130.412 -213.174 137.346 -205.121C144.281 -197.067 139.807 -196.62 134.215 -199.304C128.622 -201.989 120.569 -204.226 121.017 -198.857C121.464 -193.488 121.912 -192.369 121.912 -192.369C121.912 -192.369 112.516 -193.488 114.306 -189.014C116.096 -184.54 124.372 -187.224 125.938 -183.645C127.504 -180.066 122.806 -172.683 117.885 -172.46C112.964 -172.236 102.45 -173.802 108.49 -167.538C114.53 -161.274 133.991 -165.077 138.688 -172.012C143.386 -178.947 145.175 -181.184 146.518 -182.303C147.86 -183.421 153.452 -187.672 153.452 -187.672L161.952 -192.369L163.071 -187.895L152.11 -178.947L148.083 -170.446L140.03 -162.616C140.478 -157.024 138.912 -144.72 138.912 -144.72L127.056 -137.561C127.056 -137.561 134.662 -136.666 137.122 -138.456C139.583 -140.246 129.07 -129.508 129.07 -129.508L133.991 -124.586C133.991 -124.586 124.596 -119.665 123.254 -110.716C121.912 -101.768 115.424 -94.6095 113.859 -93.2672C112.293 -91.925 111.174 -86.556 116.096 -86.3323C121.017 -86.1086 127.28 -89.6879 127.28 -89.6879L130.635 -99.531L132.649 -105.347L135.78 -115.638L142.938 -120.336L143.833 -129.284L141.596 -136.443L165.979 -150.984C165.979 -150.984 165.084 -138.009 167.768 -132.192C170.452 -126.376 180.071 -124.586 180.071 -124.586L164.86 -126.6C164.86 -126.6 159.492 -111.164 159.492 -109.822C159.492 -108.479 167.321 -93.7147 167.321 -93.7147L155.018 -81.1871L143.386 -64.4091L142.267 -54.5659C142.267 -54.5659 135.333 -53.4474 134.438 -53.2237C133.543 -53 147.412 -42.262 147.412 -42.262L150.991 -46.9599L163.518 -28.6159L167.992 -34.4323C167.992 -34.4323 167.097 -46.0651 167.097 -46.7362C167.097 -47.4073 179.4 -31.3004 179.4 -31.3004L187.9 -33.0901C187.9 -33.0901 197.966 -42.4858 201.769 -38.0116C205.572 -33.5375 210.493 -42.7095 210.493 -42.7095L217.651 -40.2487L225.704 -40.025L223.915 -35.9983C223.915 -35.9983 210.493 -38.2353 209.151 -33.3138C207.809 -28.3922 194.387 -12.0616 194.387 -12.0616C194.387 -12.0616 198.637 -7.14007 201.098 0.913386C203.559 8.96684 199.756 14.1121 199.756 14.1121L202.888 16.7966L208.48 14.1121L208.032 24.4026V25.7449L214.52 27.7582L223.243 17.6914L225.257 23.2841L218.77 31.785L221.23 35.8117L219.888 39.8384L208.927 38.0488L206.69 46.1022L214.52 51.9186L214.296 55.9453L203.111 63.9988L204.901 73.3945L219.441 83.685L214.52 89.2777L204.23 75.6315L199.756 79.882L204.006 86.3695L199.309 91.7384L195.729 81.6716C195.729 81.6716 187.006 77.4212 184.545 81.2242C182.084 85.0272 177.611 85.9221 175.15 83.0139C172.689 80.1057 169.558 75.8552 169.558 75.8552C169.558 75.8552 164.86 80.5531 164.636 81.4479C164.413 82.3427 154.794 81.8953 154.794 81.8953L158.149 74.7367L144.728 60.4195L136.228 68.2492L144.281 84.3561L133.543 97.3311C133.543 97.3311 122.583 104.266 122.583 103.148C122.583 102.029 127.056 113.438 127.056 113.438L142.491 102.253L151.439 113.662L151.662 134.914L125.938 157.285L113.635 155.942L105.135 166.233L82.0945 162.206L80.0813 182.564L85.6736 185.695L91.0422 194.867L103.345 195.762L110.056 188.156L122.583 188.38L124.596 207.171L133.767 206.276L138.465 201.802L144.952 203.816L149.649 219.028L160.834 228.423L170.005 227.081L180.295 216.12L187.453 217.909L192.822 220.594L181.19 229.989L176.939 239.385C176.939 239.385 177.387 240.727 176.716 240.727C176.045 240.727 162.176 243.859 162.176 243.859L143.162 231.779C143.162 231.779 124.148 232.898 123.477 232.003C122.806 231.108 114.753 246.32 114.753 246.32H108.043L104.016 238.938L96.8581 245.873L100.213 257.058L82.7656 270.033C82.7656 270.033 78.5155 268.243 77.397 268.243C76.2786 268.243 72.4758 276.968 72.4758 276.968C72.4758 276.968 63.3045 281.666 63.5282 281.218C63.7519 280.771 60.3965 289.272 60.3965 289.272L40.0407 289.495L31.5404 290.614L32.4352 298.891Z"/>
<path d="M32.4352 298.891C32.4352 298.891 54.3569 300.681 53.0147 314.103C51.6726 327.526 62.4097 307.839 64.6466 299.562C66.8836 291.285 78.0681 299.562 78.0681 299.562C78.0681 299.562 82.5419 291.061 82.9893 289.495C83.4367 287.929 128.846 311.419 131.083 311.866C133.32 312.314 149.425 278.31 149.425 278.31C149.425 278.31 212.506 297.325 215.414 296.654C218.322 295.983 217.204 286.587 217.204 286.587L248.968 288.377L245.613 274.954L273.574 295.088L306.009 292.851L322.115 303.589L353.432 290.167L356.787 294.641L365.735 284.574L381.393 282.784L385.867 259.295L360.142 263.322L356.787 249.899C356.787 249.899 338.892 249.452 340.01 247.662C341.129 245.873 363.498 245.873 363.498 245.873L370.208 232.898C370.208 232.898 360.813 230.213 360.142 229.542C359.471 228.871 376.248 229.542 376.248 229.542L384.077 224.62L377.814 216.12L388.998 218.804C388.998 218.804 422.105 187.485 413.604 166.233C405.104 144.981 374.458 133.795 360.366 134.914C346.273 136.032 348.958 147.889 348.958 147.889C348.958 147.889 339.563 146.77 336.655 138.941C333.747 131.111 338.892 131.782 348.958 128.203C359.024 124.623 347.839 100.91 342.918 91.9622C337.997 83.0139 343.365 85.922 348.063 83.685C352.76 81.4479 342.471 66.2358 337.326 56.8401C332.181 47.4444 339.786 46.5496 344.037 42.7466C348.287 38.9436 336.207 31.1138 330.391 26.1923C324.575 21.2707 322.338 0.242271 302.43 -0.652557C282.522 -1.54738 291.245 -65.0802 293.93 -74.6996C296.614 -84.319 283.64 -75.8181 276.929 -102.216C270.219 -128.613 258.363 -118.994 251.876 -119.665C245.389 -120.336 227.27 -112.506 224.362 -120.112C221.454 -127.718 235.546 -126.152 240.691 -125.257C245.836 -124.363 244.047 -127.494 246.731 -131.521C249.415 -135.548 265.297 -118.099 264.626 -132.192C263.955 -146.286 255.231 -145.615 255.231 -145.615L259.258 -150.536C259.258 -150.536 301.312 -188.566 301.759 -204.673C302.206 -220.78 314.733 -214.069 314.733 -225.254C314.733 -236.44 272.903 -243.598 266.192 -242.48C259.481 -241.361 250.981 -251.876 246.06 -248.52C241.139 -245.164 232.638 -239.572 229.73 -241.361C226.823 -243.151 211.164 -238.453 211.388 -243.598C211.612 -248.744 218.77 -255.231 222.125 -252.099C225.48 -248.967 229.283 -250.981 229.283 -250.981C229.283 -250.981 235.994 -257.021 236.665 -258.81C237.336 -260.6 231.52 -261.048 228.388 -261.048C225.257 -261.048 224.586 -262.837 225.704 -263.956C226.823 -265.074 269.324 -293.709 270.442 -295.722C271.561 -297.512 278.719 -306.907 278.942 -312.5C279.166 -318.093 226.375 -320.33 225.704 -317.422C225.033 -314.513 220.112 -309.592 220.112 -309.592C220.112 -309.592 219.441 -315.856 217.875 -320.106C216.309 -324.357 203.335 -338.45 201.098 -329.502C198.861 -320.554 197.295 -314.961 195.058 -314.961C192.822 -314.961 179.4 -309.816 198.861 -301.538C218.322 -293.261 196.177 -293.261 189.242 -299.301C182.308 -305.341 180.966 -306.684 182.532 -298.63L182.979 -290.129L174.703 -295.722C174.703 -295.722 169.334 -290.353 175.597 -285.208C181.861 -280.063 182.308 -280.957 178.729 -278.497C175.15 -276.036 173.808 -278.049 169.334 -282.747C164.86 -287.445 163.518 -278.497 165.979 -273.351C168.439 -268.206 163.518 -270.219 161.505 -273.351C159.492 -276.483 156.584 -282.747 154.347 -278.72C152.11 -274.694 157.031 -260.376 161.505 -254.56C165.979 -248.744 163.518 -231.071 162.847 -230.176C162.176 -229.281 148.978 -232.637 150.32 -228.163C151.662 -223.688 165.084 -220.557 160.61 -216.754C156.136 -212.951 150.544 -212.056 146.294 -216.53C142.044 -221.004 130.412 -213.174 137.346 -205.121C144.281 -197.067 139.807 -196.62 134.215 -199.304C128.622 -201.989 120.569 -204.226 121.017 -198.857C121.464 -193.488 121.912 -192.369 121.912 -192.369C121.912 -192.369 112.516 -193.488 114.306 -189.014C116.096 -184.54 124.372 -187.224 125.938 -183.645C127.504 -180.066 122.806 -172.683 117.885 -172.46C112.964 -172.236 102.45 -173.802 108.49 -167.538C114.53 -161.274 133.991 -165.077 138.688 -172.012C143.386 -178.947 145.175 -181.184 146.518 -182.303C147.86 -183.421 153.452 -187.672 153.452 -187.672L161.952 -192.369L163.071 -187.895L152.11 -178.947L148.083 -170.446L140.03 -162.616C140.478 -157.024 138.912 -144.72 138.912 -144.72L127.056 -137.561C127.056 -137.561 134.662 -136.666 137.122 -138.456C139.583 -140.246 129.07 -129.508 129.07 -129.508L133.991 -124.586C133.991 -124.586 124.596 -119.665 123.254 -110.716C121.912 -101.768 115.424 -94.6095 113.859 -93.2672C112.293 -91.925 111.174 -86.556 116.096 -86.3323C121.017 -86.1086 127.28 -89.6879 127.28 -89.6879L130.635 -99.531L132.649 -105.347L135.78 -115.638L142.938 -120.336L143.833 -129.284L141.596 -136.443L165.979 -150.984C165.979 -150.984 165.084 -138.009 167.768 -132.192C170.452 -126.376 180.071 -124.586 180.071 -124.586L164.86 -126.6C164.86 -126.6 159.492 -111.164 159.492 -109.822C159.492 -108.479 167.321 -93.7147 167.321 -93.7147L155.018 -81.1871L143.386 -64.4091L142.267 -54.5659C142.267 -54.5659 135.333 -53.4474 134.438 -53.2237C133.543 -53 147.412 -42.262 147.412 -42.262L150.991 -46.9599L163.518 -28.6159L167.992 -34.4323C167.992 -34.4323 167.097 -46.0651 167.097 -46.7362C167.097 -47.4073 179.4 -31.3004 179.4 -31.3004L187.9 -33.0901C187.9 -33.0901 197.966 -42.4858 201.769 -38.0116C205.572 -33.5375 210.493 -42.7095 210.493 -42.7095L217.651 -40.2487L225.704 -40.025L223.915 -35.9983C223.915 -35.9983 210.493 -38.2353 209.151 -33.3138C207.809 -28.3922 194.387 -12.0616 194.387 -12.0616C194.387 -12.0616 198.637 -7.14007 201.098 0.913386C203.559 8.96684 199.756 14.1121 199.756 14.1121L202.888 16.7966L208.48 14.1121L208.032 24.4026V25.7449L214.52 27.7582L223.243 17.6914L225.257 23.2841L218.77 31.785L221.23 35.8117L219.888 39.8384L208.927 38.0488L206.69 46.1022L214.52 51.9186L214.296 55.9453L203.111 63.9988L204.901 73.3945L219.441 83.685L214.52 89.2777L204.23 75.6315L199.756 79.882L204.006 86.3695L199.309 91.7384L195.729 81.6716C195.729 81.6716 187.006 77.4212 184.545 81.2242C182.084 85.0272 177.611 85.9221 175.15 83.0139C172.689 80.1057 169.558 75.8552 169.558 75.8552C169.558 75.8552 164.86 80.5531 164.636 81.4479C164.413 82.3427 154.794 81.8953 154.794 81.8953L158.149 74.7367L144.728 60.4195L136.228 68.2492L144.281 84.3561L133.543 97.3311C133.543 97.3311 122.583 104.266 122.583 103.148C122.583 102.029 127.056 113.438 127.056 113.438L142.491 102.253L151.439 113.662L151.662 134.914L125.938 157.285L113.635 155.942L105.135 166.233L82.0945 162.206L80.0813 182.564L85.6736 185.695L91.0422 194.867L103.345 195.762L110.056 188.156L122.583 188.38L124.596 207.171L133.767 206.276L138.465 201.802L144.952 203.816L149.649 219.028L160.834 228.423L170.005 227.081L180.295 216.12L187.453 217.909L192.822 220.594L181.19 229.989L176.939 239.385C176.939 239.385 177.387 240.727 176.716 240.727C176.045 240.727 162.176 243.859 162.176 243.859L143.162 231.779C143.162 231.779 124.148 232.898 123.477 232.003C122.806 231.108 114.753 246.32 114.753 246.32H108.043L104.016 238.938L96.8581 245.873L100.213 257.058L82.7656 270.033C82.7656 270.033 78.5155 268.243 77.397 268.243C76.2786 268.243 72.4758 276.968 72.4758 276.968C72.4758 276.968 63.3045 281.666 63.5282 281.218C63.7519 280.771 60.3965 289.272 60.3965 289.272L40.0407 289.495L31.5404 290.614L32.4352 298.891Z" stroke="currentColor" stroke-width="2" />
</g>
</svg>
